<?xml version="1.0"?>
<svg xmlns="http://www.w3.org/2000/svg" height="512px" viewBox="-19 0 512 512" width="512px" class=""><g><path d="m366.628906 170.402344c-5.742187 0-10.398437-4.605469-10.398437-10.289063v-44.0625h-44.542969c-5.746094 0-10.402344-4.609375-10.402344-10.289062v-33.285157c0-5.679687 4.65625-10.289062 10.402344-10.289062h44.542969v-44.058594c0-5.683594 4.65625-10.292968 10.398437-10.292968h33.648438c5.742187 0 10.402344 4.609374 10.402344 10.292968v44.0625h44.542968c5.742188 0 10.398438 4.605469 10.398438 10.289063v33.28125c0 5.679687-4.65625 10.292969-10.398438 10.292969h-44.542968v44.058593c0 5.683594-4.660157 10.292969-10.402344 10.292969h-33.648438zm0 0" fill="#ffc843" data-original="#FFC843" class="active-path" style="fill:#6DE594" data-old_color="#6DE695"/><path d="m337.625 405.824219c-24.9375-23.695313-57.410156-37.128907-91.824219-38.089844 51.101563-20.359375 87.183594-69.933594 87.183594-127.867187 0-76.082032-62.230469-137.765626-138.992187-137.765626-76.765626 0-138.996094 61.679688-138.996094 137.765626 0 57.933593 36.082031 107.507812 87.183594 127.867187-34.414063.960937-66.886719 14.394531-91.824219 38.089844-25.808594 24.519531-40.90625 57.480469-42.515625 92.804687-.0625 1.441406.46875 2.851563 1.476562 3.898438 1.007813 1.046875 2.40625 1.636718 3.863282 1.636718h361.621093c1.457031 0 2.855469-.589843 3.863281-1.636718 1.007813-1.046875 1.542969-2.457032 1.476563-3.898438-1.605469-35.324218-16.707031-68.285156-42.515625-92.804687zm0 0" fill="#76ffd9" data-original="#76FFD9" class="" style="fill:#50C4EC" data-old_color="#50c4ec"/><path d="m245.800781 367.734375c34.414063.960937 66.886719 14.394531 91.824219 38.089844 25.808594 24.519531 40.910156 57.480469 42.515625 92.804687.0625 1.441406-.46875 2.851563-1.480469 3.898438-1.007812 1.046875-2.402344 1.636718-3.863281 1.636718h-32.65625c1.460937 0 2.855469-.589843 3.863281-1.636718 1.011719-1.046875 1.542969-2.457032 1.476563-3.898438-1.605469-35.328125-16.703125-68.285156-42.511719-92.804687-24.9375-23.695313-59.167969-38.089844-59.167969-38.089844" fill="#fff" data-original="#FFF" class=""/><path d="m142.179688 367.734375c-34.414063.960937-66.890626 14.394531-91.824219 38.089844-25.8125 24.519531-40.910157 57.480469-42.515625 92.804687-.066406 1.441406.46875 2.851563 1.476562 3.898438 1.007813 1.046875 2.40625 1.636718 3.863282 1.636718h32.65625c-1.457032 0-2.855469-.589843-3.863282-1.636718-1.007812-1.046875-1.542968-2.457032-1.476562-3.898438 1.605468-35.328125 16.703125-68.285156 42.515625-92.804687 24.9375-23.695313 59.167969-38.089844 59.167969-38.089844" fill="#5de0bf" data-original="#5DE0BF" class="" style="fill:#2784A4" data-old_color="#2783A3"/><path d="m120.089844 349.9375c-25.066406-24.910156-40.574219-59.269531-40.574219-97.230469 0-76.089843 62.230469-137.769531 138.996094-137.769531 18.472656 0 36.09375 3.582031 52.214843 10.066406-21.992187-14.464844-48.367187-22.902344-76.738281-22.902344-76.765625 0-138.992187 61.679688-138.992187 137.765626 0 54.804687 32.292968 102.109374 79.039062 124.296874-4.984375-4.402343-9.640625-9.160156-13.945312-14.226562zm0 0" fill="#5de0bf" data-original="#5DE0BF" class="" style="fill:#2784A4" data-old_color="#2783A3"/><g fill="#434c54"><path d="m455.222656 54.351562h-36.707031v-36.222656c0-9.996094-8.183594-18.128906-18.238281-18.128906h-33.648438c-10.054687 0-18.234375 8.132812-18.234375 18.128906v36.222656h-36.707031c-10.058594 0-18.238281 8.132813-18.238281 18.128907v33.28125c0 9.996093 8.179687 18.128906 18.238281 18.128906h36.707031v36.222656c0 9.996094 8.179688 18.128907 18.234375 18.128907h33.648438c10.054687 0 18.238281-8.132813 18.238281-18.128907v-36.222656h36.707031c10.054688 0 18.234375-8.132813 18.234375-18.128906v-33.285157c.003907-9.992187-8.179687-18.125-18.234375-18.125zm2.5625 51.410157c0 1.351562-1.148437 2.453125-2.5625 2.453125h-44.542968c-4.328126 0-7.835938 3.511718-7.835938 7.835937v44.0625c0 1.351563-1.152344 2.453125-2.566406 2.453125h-33.644532c-1.414062 0-2.566406-1.101562-2.566406-2.453125v-44.0625c0-4.324219-3.507812-7.835937-7.835937-7.835937h-44.542969c-1.414062 0-2.566406-1.101563-2.566406-2.453125v-33.285157c0-1.351562 1.152344-2.449218 2.566406-2.449218h44.542969c4.328125 0 7.835937-3.511719 7.835937-7.839844v-44.058594c0-1.355468 1.152344-2.457031 2.566406-2.457031h33.644532c1.414062 0 2.566406 1.101563 2.566406 2.457031v44.0625c0 4.328125 3.507812 7.835938 7.835938 7.835938h44.542968c1.414063 0 2.5625 1.101562 2.5625 2.453125zm0 0" data-original="#000000" class=""/><path d="m343.023438 400.140625c-19.789063-18.800781-44.246094-31.550781-70.644532-37.121094 16.734375-10.472656 31.210938-24.242187 42.613282-40.65625 16.898437-24.324219 25.828124-52.851562 25.828124-82.496093 0-80.285157-65.867187-145.601563-146.828124-145.601563-80.964844 0-146.832032 65.316406-146.832032 145.601563 0 29.644531 8.929688 58.171874 25.828125 82.496093 11.402344 16.414063 25.878907 30.183594 42.613281 40.65625-26.398437 5.570313-50.855468 18.320313-70.644531 37.121094-27.285156 25.925781-43.246093 60.773437-44.9453122 98.140625-.1562498 3.574219 1.1796872 7.109375 3.6640622 9.683594 2.472657 2.566406 5.9375 4.035156 9.507813 4.035156h361.617187c3.570313 0 7.035157-1.46875 9.503907-4.03125 2.488281-2.582031 3.824218-6.113281 3.667968-9.699219-1.703125-37.355469-17.664062-72.203125-44.949218-98.128906zm-327.207032 96.1875c2.132813-32.285156 16.25-62.320313 39.933594-84.824219 23.4375-22.269531 54.207031-35.027344 86.648438-35.933594 3.714843-.105468 6.847656-2.804687 7.496093-6.464843.648438-3.660157-1.363281-7.273438-4.816406-8.648438-24.011719-9.566406-44.488281-25.832031-59.21875-47.035156-15.066406-21.6875-23.027344-47.121094-23.027344-73.554687 0-71.640626 58.835938-129.929688 131.15625-129.929688 72.320313 0 131.160157 58.289062 131.160157 129.929688 0 26.433593-7.964844 51.867187-23.03125 73.554687-14.726563 21.203125-35.207032 37.464844-59.21875 47.035156-3.453126 1.375-5.464844 4.988281-4.816407 8.648438.652344 3.660156 3.78125 6.359375 7.5 6.464843 32.4375.90625 63.207031 13.667969 86.644531 35.933594 23.691407 22.507813 37.808594 52.542969 39.9375 84.824219zm0 0" data-original="#000000" class=""/><path d="m240.460938 255.527344c-4.328126 0-7.839844 3.507812-7.839844 7.835937 0 20.449219-16.871094 37.085938-37.609375 37.085938-20.734375 0-37.609375-16.636719-37.609375-37.085938 0-4.328125-3.507813-7.835937-7.835938-7.835937s-7.835937 3.507812-7.835937 7.835937c0 29.09375 23.902343 52.761719 53.28125 52.761719 29.382812 0 53.285156-23.667969 53.285156-52.761719 0-4.328125-3.507813-7.835937-7.835937-7.835937zm0 0" data-original="#000000" class=""/><path d="m165.402344 217.773438c0-9.023438-7.398438-16.335938-16.523438-16.335938s-16.527344 7.3125-16.527344 16.335938c0 9.019531 7.402344 16.335937 16.527344 16.335937s16.523438-7.316406 16.523438-16.335937zm0 0" data-original="#000000" class=""/><path d="m257.671875 217.773438c0-9.023438-7.398437-16.335938-16.523437-16.335938-9.128907 0-16.527344 7.3125-16.527344 16.335938 0 9.019531 7.398437 16.335937 16.527344 16.335937 9.125 0 16.523437-7.316406 16.523437-16.335937zm0 0" data-original="#000000" class=""/></g></g> </svg>
